<svg width="36" height="45" viewBox="0 0 36 45" fill="none" xmlns="http://www.w3.org/2000/svg">
<g clip-path="url(#clip0_26_94)">
<path d="M35 11V1L1 1V11" stroke="url(#paint0_linear_26_94)" stroke-width="2"/>
<path d="M1 34.5V44.5H35V34.5" stroke="url(#paint1_linear_26_94)" stroke-width="2"/>
<path d="M11.771 28.17C10.8417 28.17 10.0483 28.0397 9.391 27.779V26.215C9.663 26.3283 9.98033 26.4247 10.343 26.504C10.717 26.572 11.0853 26.606 11.448 26.606C12.2073 26.606 12.7343 26.453 13.029 26.147C13.335 25.8297 13.488 25.3253 13.488 24.634V17.052H15.341V24.94C15.341 25.9827 15.0407 26.7817 14.44 27.337C13.8507 27.8923 12.961 28.17 11.771 28.17ZM17.3923 28V17.052H19.0243L24.7363 25.11V17.052H26.5723V28H24.9403L19.2453 19.959V28H17.3923Z" fill="#253B59"/>
</g>
<defs>
<linearGradient id="paint0_linear_26_94" x1="1" y1="11" x2="35" y2="11" gradientUnits="userSpaceOnUse">
<stop stop-color="#253B59"/>
<stop offset="1" stop-color="#253B59" stop-opacity="0.8"/>
</linearGradient>
<linearGradient id="paint1_linear_26_94" x1="35" y1="34" x2="1" y2="34" gradientUnits="userSpaceOnUse">
<stop stop-color="#253B59"/>
<stop offset="1" stop-color="#253B59" stop-opacity="0.8"/>
</linearGradient>
<clipPath id="clip0_26_94">
<rect width="36" height="45" fill="white"/>
</clipPath>
</defs>
</svg>
